<svg xmlns="http://www.w3.org/2000/svg" width="1996.503" height="2240.813" viewBox="0 0 1996.503 2240.813">
  <path id="Subtraction_2" data-name="Subtraction 2" d="M-4631,8275.313H-6627.5V6034.5h434.6c15.533,9.424,31.588,19.664,47.721,30.438,16.461,10.992,33.482,22.862,50.589,35.28,17.438,12.657,35.453,26.238,53.543,40.365,18.414,14.376,37.451,29.749,56.585,45.69,21.179,17.643,41.67,35.652,60.9,53.528,18.694,17.373,36.706,35.094,53.537,52.671,16.351,17.077,32.048,34.5,46.656,51.783,14.161,16.755,27.708,33.87,40.263,50.868,12.142,16.434,23.7,33.228,34.357,49.917,10.274,16.085,20.012,32.55,28.942,48.937,8.585,15.758,16.664,31.883,24.011,47.93,7.055,15.411,13.638,31.187,19.568,46.891,5.678,15.032,10.932,30.448,15.616,45.82,4.446,14.583,8.533,29.628,12.148,44.719,3.389,14.144,6.474,28.809,9.17,43.589,2.5,13.719,4.747,27.994,6.677,42.431,3.334,24.928,5.9,51.507,7.833,81.253,1.712,26.336,2.732,51.693,3.719,76.215v.034c3.77,93.724,7.026,174.666,45.912,240.647,20.55,34.87,49.845,63.473,89.561,87.445,10.492,6.334,21.9,12.441,33.915,18.151,12.232,5.814,25.479,11.4,39.375,16.615,14.129,5.3,29.355,10.36,45.254,15.051,16.124,4.759,33.47,9.289,51.558,13.464,18.449,4.258,36.846,9.278,54.68,14.923,17.466,5.527,34.876,11.8,51.747,18.659,16.506,6.7,32.957,14.144,48.9,22.115,15.577,7.793,31.093,16.305,46.117,25.3,14.674,8.787,29.283,18.277,43.421,28.208,13.771,9.669,27.5,20.044,40.8,30.836,12.925,10.485,25.8,21.653,38.263,33.193,12.1,11.207,24.148,23.074,35.8,35.273,11.316,11.847,22.56,24.32,33.417,37.073,10.539,12.381,21.007,25.369,31.114,38.6,9.816,12.858,19.534,26.266,28.885,39.851,9.076,13.183,18.072,26.918,26.741,40.827,16.477,26.44,32.407,54.525,47.349,83.475,13.879,26.9,27.236,55.179,39.7,84.063,11.475,26.591,22.469,54.329,32.678,82.441,9.292,25.587,18.135,52.036,26.285,78.612,13.741,44.807,25.818,90.87,35.9,136.909,8.96,40.919,14.657,74.3,17.858,95.1,3.271,21.267,4.681,34.18,4.831,35.582l0,.042Z" transform="translate(6627.5 -6034.5)" fill="#f6f4f1"/>
</svg>
