<svg xmlns="http://www.w3.org/2000/svg" width="1924" height="1761.785" viewBox="0 0 1924 1761.785">
  <path id="Subtraction_5" data-name="Subtraction 5" d="M-2581,7970.284h0V7019.73l.5-3.482c.165-.135,16.812-13.681,47.083-33.659,17.778-11.734,36.681-23.342,56.184-34.5,24.4-13.962,49.823-27.268,75.571-39.547a1135.772,1135.772,0,0,1,202.2-74.052c19.828-5.163,39.977-9.8,59.888-13.78,20.951-4.188,42.208-7.762,63.179-10.622,21.986-3,44.275-5.3,66.249-6.837,22.949-1.606,46.2-2.42,69.094-2.42,19.973,0,40.18.619,60.058,1.84,20.534,1.263,41.32,3.207,61.78,5.777,15.862,2,31.873,3.51,47.589,4.5,15.5.982,31.119,1.48,46.414,1.48a705.342,705.342,0,0,0,71.136-3.584,681.98,681.98,0,0,0,68.179-10.451c21.912-4.513,43.855-10.188,65.219-16.869,20.9-6.533,41.851-14.215,62.26-22.833,19.943-8.421,39.895-17.959,59.3-28.35,18.984-10.163,37.939-21.405,56.339-33.415,18-11.746,35.965-24.54,53.383-38.025,17.026-13.181,33.989-27.375,50.419-42.19,16.048-14.466,32.018-29.909,47.465-45.9,15.1-15.639,30.075-32.181,44.5-49.166,14.1-16.6,28.081-34.086,41.546-51.975,13.13-17.445,26.113-35.726,38.587-54.333,12.171-18.161,24.157-37.085,35.625-56.246,11.212-18.729,22.2-38.142,32.669-57.7,16.374-30.6,31.987-62.526,46.4-94.892H-657v937.636a576.725,576.725,0,0,1-21.966,56.529,505.045,505.045,0,0,1-26.891,51.5,453.425,453.425,0,0,1-32.226,46.881,421.462,421.462,0,0,1-39.184,43.328c-7.191,6.908-14.728,13.635-22.4,19.993-7.844,6.5-16.048,12.788-24.385,18.7-8.52,6.038-17.419,11.848-26.45,17.27-9.216,5.532-18.836,10.815-28.594,15.7-19.719,9.881-40.019,19.05-60.336,27.254-19.491,7.867-39.577,15.08-59.7,21.437-19.23,6.073-39.085,11.555-59.014,16.292-18.91,4.5-38.519,8.476-58.282,11.826-18.563,3.146-37.911,5.847-57.506,8.027-18.13,2.019-37.2,3.667-56.68,4.9-33.575,2.125-68.751,3.115-110.7,3.115-30.541,0-61.152-.532-88.159-1l-.2,0h-.008l-1.4-.022-.054,0h-.006c-28.983-.5-56.359-.978-84.07-.978-42.869,0-77.428,1.213-108.759,3.816-38.087,3.167-71.768,8.445-102.966,16.136-14.534,3.583-30.328,8.392-46.942,14.294-15.875,5.638-32.928,12.428-50.683,20.181-16.852,7.355-34.85,15.81-53.493,25.13-17.644,8.821-36.272,18.624-55.366,29.136-66.063,36.377-140.589,82.755-221.507,137.846-31.777,21.633-64.65,44.693-97.7,68.54-26.51,19.126-53.1,38.73-79.041,58.266-45.092,33.956-71.992,55.464-72.2,55.634L-2581,7970.284Z" transform="translate(2580.999 -6208.499)" fill="#f6f4f1"/>
</svg>
