<svg xmlns="http://www.w3.org/2000/svg" width="1153.826" height="1204.148" viewBox="0 0 1153.826 1204.148">
  <path id="Subtraction_1" data-name="Subtraction 1" d="M-5407.51,7544.648H-6561.335V6381.523c0-.044.364-4.564,1.619-11.874a222.236,222.236,0,0,1,7.106-29.15h339.584c16.738,12.451,34.213,26.253,51.942,41.024,11.81,9.839,23.219,19.867,33.91,29.8,10.408,9.673,20.437,19.54,29.808,29.326,9.1,9.506,17.842,19.207,25.977,28.832,7.889,9.335,15.432,18.864,22.417,28.32,6.768,9.161,13.2,18.512,19.129,27.792,5.727,8.966,11.148,18.134,16.114,27.248,4.776,8.765,9.274,17.744,13.369,26.686,3.923,8.569,7.589,17.353,10.9,26.107,3.156,8.356,6.081,16.939,8.694,25.512,2.477,8.127,4.753,16.5,6.764,24.9a472.6,472.6,0,0,1,8.823,47.893c1.858,13.892,3.284,28.69,4.361,45.24.949,14.586,1.518,28.7,2.067,42.351l0,.1c2.1,52.184,3.914,97.251,25.563,133.985,11.441,19.414,27.752,35.339,49.865,48.687,5.843,3.527,12.2,6.927,18.884,10.106,6.811,3.238,14.187,6.351,21.922,9.25,7.861,2.947,16.338,5.766,25.2,8.38,8.982,2.651,18.641,5.172,28.707,7.5,10.266,2.369,20.509,5.165,30.445,8.309,9.724,3.077,19.417,6.572,28.811,10.388,9.191,3.733,18.351,7.877,27.223,12.314,8.672,4.337,17.311,9.077,25.678,14.086a404.97,404.97,0,0,1,46.894,32.875,445.157,445.157,0,0,1,41.237,38.12c45.446,47.578,84.261,108.251,115.367,180.334a874.131,874.131,0,0,1,32.829,89.671c7.651,24.951,14.376,50.6,19.987,76.228,4.995,22.814,8.164,41.386,9.942,52.949,1.891,12.291,2.661,19.53,2.693,19.832h0Z" transform="translate(6561.335 -6340.5)" fill="#f6f4f1"/>
</svg>
